<svg width="33" height="32" viewBox="0 0 33 32" fill="none" xmlns="http://www.w3.org/2000/svg">
<path d="M32.9987 16C32.9987 7.16347 25.8353 2.67029e-05 16.9987 2.67029e-05C8.16216 2.67029e-05 0.998718 7.16347 0.998718 16C0.998718 23.9861 6.84969 30.6053 14.4987 31.8057V20.625H10.4362V16H14.4987V12.475C14.4987 8.46503 16.8874 6.25003 20.5422 6.25003C22.2927 6.25003 24.1237 6.56253 24.1237 6.56253V10.5H22.1062C20.1186 10.5 19.4987 11.7334 19.4987 12.9987V16H23.9362L23.2268 20.625H19.4987V31.8057C27.1477 30.6053 32.9987 23.9861 32.9987 16Z" fill="#F9FAFB"/>
</svg>
