<svg width="32" height="32" viewBox="0 0 32 32" fill="none" xmlns="http://www.w3.org/2000/svg">
<path d="M16.0009 0C11.6556 0 11.1103 0.0190003 9.40372 0.096667C7.70044 0.174667 6.5378 0.444333 5.5205 0.84C4.4682 1.24867 3.57556 1.79533 2.68625 2.685C1.79628 3.57433 1.24963 4.467 0.839641 5.519C0.442986 6.53667 0.172995 7.69967 0.0963303 9.40233C0.0199992 11.109 0 11.6547 0 16C0 20.3453 0.0193331 20.889 0.0966641 22.5957C0.174995 24.299 0.444653 25.4617 0.839975 26.479C1.24896 27.5313 1.79561 28.424 2.68525 29.3133C3.57423 30.2033 4.46687 30.7513 5.5185 31.16C6.53647 31.5557 7.69943 31.8253 9.40238 31.9033C11.109 31.981 11.654 32 15.9989 32C20.3444 32 20.888 31.981 22.5947 31.9033C24.2979 31.8253 25.4619 31.5557 26.4799 31.16C27.5318 30.7513 28.4231 30.2033 29.3121 29.3133C30.2021 28.424 30.7487 27.5313 31.1587 26.4793C31.552 25.4617 31.822 24.2987 31.902 22.596C31.9787 20.8893 31.9987 20.3453 31.9987 16C31.9987 11.6547 31.9787 11.1093 31.902 9.40267C31.822 7.69933 31.552 6.53667 31.1587 5.51933C30.7487 4.467 30.2021 3.57433 29.3121 2.685C28.4221 1.795 27.5322 1.24833 26.4789 0.84C25.4589 0.444333 24.2956 0.174667 22.5923 0.096667C20.8857 0.0190003 20.3424 0 15.9959 0H16.0009ZM14.5656 2.88333C14.9915 2.88267 15.4669 2.88333 16.0009 2.88333C20.2727 2.88333 20.779 2.89867 22.466 2.97533C24.0259 3.04667 24.8726 3.30733 25.4366 3.52633C26.1832 3.81633 26.7155 4.163 27.2752 4.723C27.8352 5.283 28.1818 5.81633 28.4725 6.563C28.6915 7.12633 28.9525 7.973 29.0235 9.533C29.1001 11.2197 29.1168 11.7263 29.1168 15.9963C29.1168 20.2663 29.1001 20.773 29.0235 22.4597C28.9521 24.0197 28.6915 24.8663 28.4725 25.4297C28.1825 26.1763 27.8352 26.708 27.2752 27.2677C26.7152 27.8277 26.1835 28.1743 25.4366 28.4643C24.8732 28.6843 24.0259 28.9443 22.466 29.0157C20.7794 29.0923 20.2727 29.109 16.0009 29.109C11.7286 29.109 11.2223 29.0923 9.53571 29.0157C7.97576 28.9437 7.12912 28.683 6.5648 28.464C5.81816 28.174 5.28484 27.8273 4.72486 27.2673C4.16487 26.7073 3.81822 26.1753 3.52756 25.4283C3.30857 24.865 3.04757 24.0183 2.97658 22.4583C2.89991 20.7717 2.88458 20.265 2.88458 15.9923C2.88458 11.7197 2.89991 11.2157 2.97658 9.529C3.04791 7.969 3.30857 7.12233 3.52756 6.55833C3.81755 5.81167 4.16487 5.27833 4.72486 4.71833C5.28484 4.15833 5.81816 3.81167 6.5648 3.521C7.12878 3.301 7.97576 3.041 9.53571 2.96933C11.0117 2.90267 11.5837 2.88267 14.5656 2.87933V2.88333ZM24.5413 5.54C23.4813 5.54 22.6213 6.399 22.6213 7.45933C22.6213 8.51933 23.4813 9.37933 24.5413 9.37933C25.6012 9.37933 26.4612 8.51933 26.4612 7.45933C26.4612 6.39933 25.6012 5.54 24.5413 5.54ZM16.0009 7.78333C11.4633 7.78333 7.78443 11.4623 7.78443 16C7.78443 20.5377 11.4633 24.215 16.0009 24.215C20.5384 24.215 24.2159 20.5377 24.2159 16C24.2159 11.4623 20.5384 7.78333 16.0009 7.78333ZM16.0009 10.6667C18.9461 10.6667 21.334 13.0543 21.334 16C21.334 18.9453 18.9461 21.3333 16.0009 21.3333C13.0553 21.3333 10.6677 18.9453 10.6677 16C10.6677 13.0543 13.0553 10.6667 16.0009 10.6667Z" fill="white"/>
</svg>
