<svg width="33" height="32" viewBox="0 0 33 32" fill="none" xmlns="http://www.w3.org/2000/svg">
<path d="M27.3772 27.0417H22.6163V19.6773C22.6163 17.9212 22.5846 15.6605 20.1401 15.6605C17.6605 15.6605 17.2811 17.5738 17.2811 19.5494V27.0412H12.5202V11.897H17.0907V13.9666H17.1546C17.612 13.1941 18.273 12.5586 19.0671 12.1278C19.8612 11.6971 20.7588 11.4871 21.6641 11.5203C26.4895 11.5203 27.3792 14.6553 27.3792 18.7338L27.3772 27.0417ZM7.14831 9.82686C6.60187 9.82695 6.06767 9.667 5.61327 9.36722C5.15887 9.06744 4.80471 8.64129 4.5955 8.14268C4.3863 7.64406 4.33148 7.09537 4.43798 6.56598C4.54449 6.0366 4.80755 5.5503 5.19386 5.16858C5.58018 4.78686 6.07242 4.52686 6.60834 4.42147C7.14425 4.31608 7.69976 4.37002 8.20464 4.57648C8.70951 4.78294 9.14106 5.13264 9.44473 5.58136C9.74839 6.03008 9.91053 6.55767 9.91063 7.09741C9.9107 7.45578 9.83929 7.81066 9.7005 8.14177C9.56172 8.47289 9.35828 8.77376 9.10178 9.02722C8.84527 9.28067 8.54072 9.48174 8.20554 9.61894C7.87037 9.75614 7.51112 9.82679 7.14831 9.82686ZM9.52876 27.0417H4.76289V11.897H9.52876V27.0417ZM29.7507 0.00191814H2.37055C1.74909 -0.00500901 1.15025 0.232048 0.705658 0.660996C0.261066 1.08994 0.00709621 1.67569 -0.000488281 2.28952V29.4464C0.00683662 30.0605 0.260658 30.6466 0.705235 31.076C1.14981 31.5054 1.74879 31.743 2.37055 31.7364H29.7507C30.3737 31.7441 30.9744 31.5073 31.4207 31.0779C31.867 30.6485 32.1225 30.0617 32.1312 29.4464V2.28756C32.1223 1.67251 31.8666 1.0861 31.4202 0.657164C30.9739 0.228226 30.3734 -0.0081538 29.7507 -4.20539e-05" fill="#F9FAFB"/>
</svg>
