<svg width="492" height="76" viewBox="0 0 492 76" fill="none" xmlns="http://www.w3.org/2000/svg">
<path d="M5.2773 37.3568C5.2773 39.6454 6.56022 41.7408 8.59853 42.7814L57.4932 67.7439C61.005 69.5368 65.1711 66.9861 65.1711 63.0432V63.0432C65.1711 61.0179 64.0122 59.1712 62.1884 58.2904L19.5341 37.6912C19.4343 37.643 19.3301 37.7485 19.3796 37.8477V37.8477C19.4343 37.9574 19.5997 37.9185 19.5997 37.7958V36.9178C19.5997 36.7951 19.4343 36.7561 19.3796 36.8659V36.8659C19.3301 36.965 19.4343 37.0706 19.5341 37.0224L62.1884 16.4231C64.0122 15.5424 65.1711 13.6957 65.1711 11.6704V11.6704C65.1711 7.72747 61.005 5.17677 57.4932 6.96962L8.59853 31.9322C6.56022 32.9728 5.2773 35.0682 5.2773 37.3568V37.3568Z" fill="#818CF8"/>
<path d="M3.48825e-05 37.2422C3.48825e-05 39.645 1.3487 41.8445 3.49025 42.9343L55.0446 69.1679C58.7346 71.0456 63.1065 68.3649 63.1065 64.2246V64.2246C63.1065 62.0936 61.8857 60.1511 59.9656 59.2269L15.0214 37.5933C14.9164 37.5427 14.8068 37.6539 14.859 37.7582V37.7582C14.9168 37.8736 15.0907 37.8325 15.0907 37.7035V36.7808C15.0907 36.6518 14.9168 36.6107 14.859 36.7261V36.7261C14.8068 36.8304 14.9164 36.9416 15.0214 36.891L59.9656 15.2575C61.8857 14.3332 63.1065 12.3907 63.1065 10.2598V10.2598C63.1065 6.11948 58.7346 3.43877 55.0446 5.31646L3.49024 31.5501C1.3487 32.6398 3.48825e-05 34.8393 3.48825e-05 37.2422V37.2422Z" fill="#4338CA"/>
<g filter="url(#filter0_d_1_5814)">
<path d="M76.1711 0.00959466H101.562C107.321 0.00959466 111.878 1.43257 115.223 4.28811C118.569 7.14365 120.242 11.4991 120.242 17.364C120.242 21.0656 119.453 24.2673 117.886 26.969C116.319 29.6707 114.127 31.7378 111.33 33.18C108.522 34.6222 105.273 35.3433 101.571 35.3433H87.2946V58.8798H76.1808V0L76.1711 0.00959466ZM106.849 23.6231C108.417 22.2867 109.205 20.3349 109.205 17.7582C109.205 15.1815 108.407 13.3066 106.811 11.9702C105.215 10.6337 102.956 9.96072 100.024 9.96072H87.2946V25.6229H100.024C103.004 25.6229 105.282 24.9595 106.849 23.6135V23.6231Z" fill="#1D4ED8"/>
<path d="M134.509 56.88C131.164 54.9763 128.577 52.3419 126.751 48.9671C124.924 45.602 124.011 41.7754 124.011 37.5065C124.011 33.5453 124.818 29.8245 126.443 26.3536C128.068 22.8827 130.51 20.0656 133.779 17.9023C137.047 15.7391 141.047 14.6622 145.777 14.6622C149.69 14.6622 153.285 15.4699 156.583 17.0947C159.871 18.71 162.524 21.2098 164.534 24.5845C166.543 27.9592 167.543 32.132 167.543 37.1219V39.3622H137.528C136.144 39.3622 135.028 39.2852 134.211 39.1314L133.904 40.2852C134.317 40.3909 134.634 40.5928 134.865 40.9005C135.096 41.2081 135.288 41.6504 135.442 42.2081C135.855 43.2849 136.192 44.0348 136.442 44.4483C137.47 46.4577 138.845 48.0153 140.566 49.121C142.287 50.2267 144.258 50.7843 146.469 50.7843C148.834 50.7843 150.863 50.1786 152.564 48.9671C154.266 47.7557 155.468 46.1982 156.189 44.2945H166.841C165.447 48.871 163.005 52.5918 159.506 55.4474C156.006 58.3029 151.536 59.7355 146.075 59.7355C141.701 59.7355 137.845 58.7837 134.5 56.88H134.509ZM137.211 31.7955C137.826 31.6416 138.518 31.5647 139.297 31.5647H152.728C153.555 31.5647 154.285 31.6416 154.929 31.7955C155.574 31.9493 156.304 32.257 157.131 32.7185L157.746 31.6416C157.391 31.4397 157.131 31.2474 156.977 31.0648C156.823 30.8821 156.708 30.6898 156.631 30.4879C156.554 30.286 156.516 30.1514 156.516 30.1033C156.314 29.2284 155.9 28.3823 155.285 27.5554C154.304 26.0652 153.016 24.921 151.43 24.123C149.834 23.325 148.055 22.9308 146.104 22.9308C144.152 22.9308 142.383 23.3154 140.816 24.0845C139.249 24.8537 137.97 26.0171 136.999 27.5554C136.326 28.3823 135.894 29.2284 135.692 30.1033C135.692 30.1514 135.644 30.2956 135.538 30.5263C135.432 30.7571 135.307 30.9686 135.153 31.1417C135 31.3147 134.769 31.4878 134.461 31.6416L135.153 32.7185C135.923 32.257 136.624 31.9493 137.24 31.7955H137.211Z" fill="#1D4ED8"/>
<path d="M207.892 17.6043C210.777 19.508 213.007 22.1713 214.603 25.5941C216.199 29.0169 216.997 32.9108 216.997 37.2854C216.997 41.6601 216.199 45.554 214.603 48.9768C213.007 52.3996 210.767 55.0628 207.892 56.9665C205.008 58.8702 201.691 59.8221 197.942 59.8221C195.163 59.8221 192.827 59.3221 190.924 58.3126C189.02 57.3127 187.242 55.6013 185.598 53.1784L184.521 53.9475C184.934 54.5148 185.223 55.0532 185.405 55.5724C185.588 56.0916 185.674 56.7262 185.674 57.5049V74.4843H175.253V15.6045H185.674V16.989C185.674 17.7581 185.588 18.4119 185.405 18.96C185.223 19.4984 184.925 20.056 184.521 20.6233L185.598 21.3155C187.242 18.9023 189.02 17.2005 190.924 16.2198C192.827 15.2391 195.163 14.7488 197.942 14.7488C201.691 14.7488 205.018 15.7006 207.892 17.6043V17.6043ZM187.482 27.4785C185.396 29.9975 184.357 33.2665 184.357 37.2758C184.357 41.2851 185.396 44.5541 187.482 47.0731C189.568 49.5921 192.25 50.8516 195.548 50.8516C198.846 50.8516 201.49 49.5825 203.499 47.0346C205.508 44.4868 206.508 41.237 206.508 37.2758C206.508 33.3146 205.508 30.0649 203.499 27.517C201.49 24.9691 198.846 23.7 195.548 23.7C192.25 23.7 189.568 24.9595 187.482 27.4785V27.4785Z" fill="#1D4ED8"/>
<path d="M225.333 58.8896V0.00976562H236.447V24.3924H261.684V0.00976562H272.797V58.8896H261.684V34.3531H236.447V58.8896H225.333Z" fill="#1D4ED8"/>
<path d="M284.44 52.5631C283.613 50.8613 283.104 49.1307 282.892 47.352C282.69 45.5733 282.585 43.3043 282.585 40.5256V15.595H292.997V40.6026C292.997 42.8139 293.16 44.6022 293.497 45.9675C293.833 47.3328 294.362 48.4289 295.083 49.2461C296.217 50.5345 298.044 51.1786 300.563 51.1786C303.495 51.1786 305.706 50.3037 307.197 48.5539C308.071 47.5732 308.706 46.2271 309.09 44.5061C309.475 42.7851 309.667 40.4776 309.667 37.6028V15.6142H320.089V58.9088H309.667V57.5243C309.667 56.7551 309.754 56.0917 309.937 55.5533C310.119 55.0149 310.417 54.4572 310.821 53.8899L309.744 53.1977C308.1 55.5629 306.351 57.2455 304.495 58.255C302.639 59.2549 300.457 59.7645 297.938 59.7645C291.199 59.7645 286.699 57.3705 284.431 52.5824L284.44 52.5631Z" fill="#1D4ED8"/>
<path d="M345.326 58.2743C343.422 57.2936 341.644 55.6015 340 53.1786L338.923 53.8708C339.336 54.4381 339.634 54.9861 339.807 55.5341C339.99 56.0726 340.076 56.7264 340.076 57.5051V58.8897H329.664V0.00976562H340.076V16.9892C340.076 17.7583 339.99 18.4025 339.807 18.9217C339.625 19.4409 339.327 19.9793 338.923 20.537L340 21.3061C341.644 18.8929 343.422 17.1815 345.326 16.172C347.229 15.172 349.565 14.6624 352.344 14.6624C356.093 14.6624 359.42 15.6143 362.294 17.518C365.179 19.4217 367.409 22.0849 369.005 25.5077C370.601 28.9305 371.399 32.8244 371.399 37.1991C371.399 41.5737 370.601 45.4677 369.005 48.8905C367.409 52.3133 365.169 54.9765 362.294 56.8802C359.41 58.7839 356.093 59.7357 352.344 59.7357C349.565 59.7357 347.229 59.2454 345.326 58.2647V58.2743ZM357.901 46.9675C359.91 44.4197 360.91 41.1699 360.91 37.2087C360.91 33.2475 359.91 29.9977 357.901 27.4499C355.892 24.902 353.248 23.6329 349.95 23.6329C346.652 23.6329 343.97 24.8924 341.884 27.4114C339.798 29.9304 338.759 33.1994 338.759 37.2087C338.759 41.218 339.798 44.487 341.884 47.006C343.97 49.525 346.652 50.7845 349.95 50.7845C353.248 50.7845 355.892 49.5154 357.901 46.9675Z" fill="#1D4ED8"/>
</g>
<path d="M486.123 37.3568C486.123 39.6454 484.841 41.7408 482.802 42.7814L433.908 67.7439C430.396 69.5368 426.23 66.9861 426.23 63.0432V63.0432C426.23 61.0179 427.389 59.1712 429.212 58.2904L471.867 37.6912C471.966 37.643 472.071 37.7485 472.021 37.8477V37.8477C471.966 37.9574 471.801 37.9185 471.801 37.7958V36.9178C471.801 36.7951 471.966 36.7561 472.021 36.8659V36.8659C472.071 36.965 471.966 37.0706 471.867 37.0224L429.212 16.4231C427.389 15.5424 426.23 13.6957 426.23 11.6704V11.6704C426.23 7.72747 430.396 5.17677 433.908 6.96962L482.802 31.9322C484.841 32.9728 486.123 35.0682 486.123 37.3568V37.3568Z" fill="#818CF8"/>
<path d="M491.401 37.2421C491.401 39.6449 490.052 41.8444 487.911 42.9342L436.356 69.1678C432.666 71.0455 428.294 68.3647 428.294 64.2244V64.2244C428.294 62.0935 429.515 60.151 431.435 59.2268L476.379 37.5932C476.485 37.5426 476.594 37.6538 476.542 37.7581V37.7581C476.484 37.8735 476.31 37.8324 476.31 37.7034V36.7807C476.31 36.6517 476.484 36.6106 476.542 36.726V36.726C476.594 36.8303 476.485 36.9415 476.379 36.8909L431.435 15.2573C429.515 14.3331 428.294 12.3906 428.294 10.2597V10.2597C428.294 6.11936 432.666 3.43865 436.356 5.31634L487.911 31.55C490.052 32.6397 491.401 34.8392 491.401 37.2421V37.2421Z" fill="#4338CA"/>
<path d="M404.62 3.2793C407.878 3.2793 410.247 6.37361 409.396 9.51855L393.638 67.7785C393.054 69.936 391.097 71.4343 388.862 71.4343V71.4343C385.604 71.4343 383.236 68.34 384.086 65.195L399.844 6.93504C400.428 4.77763 402.385 3.2793 404.62 3.2793V3.2793Z" fill="#818CF8"/>
<path d="M406.935 2.13196C410.298 2.13196 412.742 5.32649 411.863 8.57218L395.605 68.582C395.002 70.8072 392.983 72.3522 390.677 72.3522V72.3522C387.315 72.3522 384.87 69.1577 385.75 65.912L402.008 5.90221C402.61 3.67702 404.63 2.13196 406.935 2.13196V2.13196Z" fill="#4338CA"/>
<defs>
<filter id="filter0_d_1_5814" x="76.1711" y="0" width="295.228" height="75.4844" filterUnits="userSpaceOnUse" color-interpolation-filters="sRGB">
<feFlood flood-opacity="0" result="BackgroundImageFix"/>
<feColorMatrix in="SourceAlpha" type="matrix" values="0 0 0 0 0 0 0 0 0 0 0 0 0 0 0 0 0 0 127 0" result="hardAlpha"/>
<feOffset dy="1"/>
<feComposite in2="hardAlpha" operator="out"/>
<feColorMatrix type="matrix" values="0 0 0 0 0.376471 0 0 0 0 0.647059 0 0 0 0 0.980392 0 0 0 0.5 0"/>
<feBlend mode="normal" in2="BackgroundImageFix" result="effect1_dropShadow_1_5814"/>
<feBlend mode="normal" in="SourceGraphic" in2="effect1_dropShadow_1_5814" result="shape"/>
</filter>
</defs>
</svg>
